# xmcd
# Copyright (c) 1998 CDDB Inc.
#
# Track frame offsets:
#	150
#	13430
#	29572
#	43772
#	57387
#	73317
#	85097
#	100660
#	113672
#	125345
#	142077
#	156625
#
# Disc length: 2268 seconds
#
# Revision: 2
# Processed by: cddbd v1.4b42PL0 Copyright (c) Steve Scherf et al.
# Submitted via: audiograbber 1.70
#
DISCID=b208da0c
DTITLE=Linda Feller - Ich weiß genau was ich will
DYEAR=1900
DGENRE=
TTITLE0=Ich weiß genau was ich will
TTITLE1=Mitten ins Herz
TTITLE2=Schau in meine Augen
TTITLE3=Vergiß Nashville
TTITLE4=Spiel mir noch einmal das Lied
TTITLE5=Ich kann ohne Dich nicht leben
TTITLE6=Such Dir einen Regenbogen
TTITLE7=Zwei Fäuste und ein Whisky
TTITLE8=Himmel und Hölle
TTITLE9=Laut ruft mein Herz nach Dir
TTITLE10=Eileen
TTITLE11=Die Nacht die kommt gehört Dir nicht
EXTD=
EXTT0=
EXTT1=
EXTT2=
EXTT3=
EXTT4=
EXTT5=
EXTT6=
EXTT7=
EXTT8=
EXTT9=
EXTT10=
EXTT11=
PLAYORDER=
